<svg width="24" height="24" viewBox="0 0 24 24" fill="none" xmlns="http://www.w3.org/2000/svg">
<path d="M13.3695 5.1475L14.7794 7.9675C14.9694 8.3575 15.4794 8.7275 15.9094 8.8075L18.4595 9.2275C20.0895 9.4975 20.4694 10.6775 19.2994 11.8575L17.3094 13.8475C16.9794 14.1775 16.7895 14.8275 16.8995 15.2975L17.4694 17.7575C17.9194 19.6975 16.8794 20.4575 15.1694 19.4375L12.7794 18.0175C12.3494 17.7575 11.6294 17.7575 11.1994 18.0175L8.80943 19.4375C7.09943 20.4475 6.05944 19.6975 6.50944 17.7575L7.07945 15.2975C7.18945 14.8375 6.99945 14.1875 6.66945 13.8475L4.67945 11.8575C3.50945 10.6875 3.88945 9.5075 5.51945 9.2275L8.06944 8.8075C8.49944 8.7375 9.00944 8.3575 9.19944 7.9675L10.6094 5.1475C11.3594 3.6175 12.5995 3.6175 13.3695 5.1475Z" fill="#FFD910"/>
</svg>
