<?xml version="1.0" encoding="UTF-8" standalone="no"?> <svg id="Layer_1" data-name="Layer 1" xmlns="http://www.w3.org/2000/svg" ><title>New Product</title><path d="M455.839,137.354,402.292,60.867a42.688,42.688,0,0,0-34.953-18.2H144.661a42.692,42.692,0,0,0-34.953,18.2l-53.547,76.49a74.308,74.308,0,0,0-13.495,42.82V416A53.4,53.4,0,0,0,96,469.333H416A53.4,53.4,0,0,0,469.333,416V180.174A74.31,74.31,0,0,0,455.839,137.354ZM384.813,73.1l53.368,76.234h-120.1L301.01,64h66.329A21.334,21.334,0,0,1,384.813,73.1ZM213.333,170.667h85.333V224H213.333ZM279.257,64l17.065,85.333H215.678L232.743,64ZM127.188,73.1A21.339,21.339,0,0,1,144.661,64H210.99l-17.067,85.333H73.819ZM448,416a32.035,32.035,0,0,1-32,32H96a32.035,32.035,0,0,1-32-32V180.174a53.592,53.592,0,0,1,.88-9.508H192v64a10.667,10.667,0,0,0,10.667,10.667H309.333A10.667,10.667,0,0,0,320,234.667v-64H447.12a53.592,53.592,0,0,1,.88,9.508Z"/><path d="M192,298.667a10.667,10.667,0,0,0-10.667,10.667v41.38l-33.984-47.578a10.668,10.668,0,0,0-19.349,6.2V384a10.667,10.667,0,1,0,21.333,0V342.62L183.318,390.2a10.668,10.668,0,0,0,19.349-6.2V309.333A10.667,10.667,0,0,0,192,298.667Z"/><path d="M272,320a10.667,10.667,0,1,0,0-21.333H229.333a10.667,10.667,0,0,0-10.667,10.667V384a10.667,10.667,0,0,0,10.667,10.667H272a10.667,10.667,0,0,0,0-21.333H240v-16h21.333a10.667,10.667,0,1,0,0-21.333H240V320Z"/><path d="M386.1,298.875a10.67,10.67,0,0,0-12.557,8.359l-9.047,45.026-11.036-21.187a10.663,10.663,0,0,0-18.917,0L323.505,352.26l-9.047-45.026a10.667,10.667,0,1,0-20.917,4.2l15,74.667a10.664,10.664,0,0,0,19.917,2.828L344,359.094l15.542,29.833a10.659,10.659,0,0,0,9.453,5.74,11.307,11.307,0,0,0,1.505-.1,10.67,10.67,0,0,0,8.958-8.464l15-74.667A10.666,10.666,0,0,0,386.1,298.875Z"/></svg>